<?xml version="1.0" encoding="UTF-8"?>
<!DOCTYPE svg PUBLIC "-//W3C//DTD SVG 1.1//EN" "http://www.w3.org/Graphics/SVG/1.1/DTD/svg11.dtd">
<svg xmlns="http://www.w3.org/2000/svg" version="1.1" width="1200px" height="1200px" style="shape-rendering:geometricPrecision; text-rendering:geometricPrecision; image-rendering:optimizeQuality; fill-rule:evenodd; clip-rule:evenodd" xmlns:xlink="http://www.w3.org/1999/xlink">
<g><path style="opacity:0.924" fill="#01e4fd" d="M 593.5,342.5 C 607.328,349.58 620.995,356.913 634.5,364.5C 648.347,369.094 662.347,373.094 676.5,376.5C 684.485,377.199 692.485,377.699 700.5,378C 701.333,378.833 702.167,379.667 703,380.5C 706.813,409.032 707.48,437.698 705,466.5C 696.789,492.788 686.789,518.454 675,543.5C 670.034,550.055 665.034,556.722 660,563.5C 652.312,571.688 644.145,579.355 635.5,586.5C 625.273,592.556 615.439,599.223 606,606.5C 599.205,607.612 592.371,607.778 585.5,607C 576.813,601.4 568.147,595.9 559.5,590.5C 555.167,586.5 550.833,582.5 546.5,578.5C 543.111,574.285 539.944,569.952 537,565.5C 534.164,564.077 531.831,562.077 530,559.5C 525.307,553.126 520.973,546.459 517,539.5C 513.577,531.656 509.91,523.989 506,516.5C 503.306,508.751 501.473,500.751 500.5,492.5C 499.5,492.5 498.5,492.5 497.5,492.5C 495.231,476.645 492.398,460.979 489,445.5C 487.306,426.199 486.139,406.866 485.5,387.5C 485.059,383.82 486.059,380.653 488.5,378C 495.5,377.667 502.5,377.333 509.5,377C 516.955,374.924 524.621,373.59 532.5,373C 540.777,369.681 549.11,366.514 557.5,363.5C 568.644,357.093 579.977,350.926 591.5,345C 592.381,344.292 593.047,343.458 593.5,342.5 Z"/></g>
<g><path style="opacity:1" fill="#05c6dc" d="M 592.5,363.5 C 598.033,364.204 602.033,367.037 604.5,372C 608.149,373.829 611.482,376.163 614.5,379C 623.731,384.891 633.731,388.891 644.5,391C 657.428,391.749 670.094,393.583 682.5,396.5C 684.894,401.553 685.894,406.886 685.5,412.5C 685.028,434.061 683.194,455.394 680,476.5C 674.845,489.645 669.512,502.645 664,515.5C 659.727,518.438 657.06,522.438 656,527.5C 651.897,531.772 648.897,536.772 647,542.5C 640.224,549.819 633.724,557.152 627.5,564.5C 625.333,566.167 623.167,567.833 621,569.5C 620.667,570.5 620.333,571.5 620,572.5C 612.686,578.999 604.519,583.999 595.5,587.5C 592.579,585.208 589.245,583.708 585.5,583C 566.115,567.624 549.615,549.79 536,529.5C 533.119,528.788 530.952,527.122 529.5,524.5C 517.463,500.552 509.296,475.219 505,448.5C 504.333,433.167 504.333,417.833 505,402.5C 505.192,400.423 505.692,398.423 506.5,396.5C 518.973,393.69 531.639,391.857 544.5,391C 549.036,389.449 553.37,387.449 557.5,385C 561.653,384.616 565.653,383.616 569.5,382C 576.044,377.901 582.377,373.568 588.5,369C 589.412,366.795 590.745,364.962 592.5,363.5 Z"/></g>
<g><path style="opacity:1" fill="#ecfafc" d="M 592.5,411.5 C 594.911,411.137 596.411,412.137 597,414.5C 597.212,417.758 597.712,420.924 598.5,424C 604.573,425.352 610.573,427.019 616.5,429C 619.682,433.181 623.516,436.681 628,439.5C 629.763,443.22 632.096,446.553 635,449.5C 636.267,454.435 637.1,459.435 637.5,464.5C 639.857,464.337 642.19,464.503 644.5,465C 645.833,466 645.833,467 644.5,468C 641.854,468.497 639.187,468.664 636.5,468.5C 636.664,471.187 636.497,473.854 636,476.5C 632.842,481.661 629.676,486.828 626.5,492C 621.016,495.911 615.35,499.578 609.5,503C 605.21,503.923 600.877,504.423 596.5,504.5C 596.5,506.5 596.5,508.5 596.5,510.5C 592.092,510.938 590.425,508.938 591.5,504.5C 573.716,503.562 561.216,494.895 554,478.5C 552.801,475.274 552.301,471.941 552.5,468.5C 549.833,468.5 547.167,468.5 544.5,468.5C 544.5,467.167 544.5,465.833 544.5,464.5C 546.861,464.326 549.194,463.993 551.5,463.5C 553.732,444.437 563.899,431.771 582,425.5C 585.105,424.633 588.272,424.299 591.5,424.5C 591.467,420.131 591.8,415.798 592.5,411.5 Z"/></g>
<g><path style="opacity:1" fill="#18c8dd" d="M 588.5,429.5 C 589.5,429.5 590.5,429.5 591.5,429.5C 591.575,432.206 591.908,434.873 592.5,437.5C 593.675,437.719 594.675,437.386 595.5,436.5C 596.374,434.253 596.708,431.92 596.5,429.5C 613.101,431.93 624.601,440.93 631,456.5C 631.497,458.81 631.663,461.143 631.5,463.5C 628.031,462.887 626.031,464.221 625.5,467.5C 627.5,467.833 629.5,468.167 631.5,468.5C 628.566,482.187 620.899,492.354 608.5,499C 604.94,500.237 601.273,500.737 597.5,500.5C 597.663,498.143 597.497,495.81 597,493.5C 595.89,491.963 594.39,491.297 592.5,491.5C 592.037,494.482 591.704,497.482 591.5,500.5C 588.482,500.665 585.482,500.498 582.5,500C 576.306,497.032 570.806,493.199 566,488.5C 562.248,483.497 559.415,477.997 557.5,472C 557.789,468.346 559.789,466.846 563.5,467.5C 563.5,466.5 563.5,465.5 563.5,464.5C 561.194,464.007 558.861,463.674 556.5,463.5C 556.412,458.517 557.579,453.851 560,449.5C 564.687,443.313 570.187,437.98 576.5,433.5C 580.651,432.283 584.651,430.95 588.5,429.5 Z"/></g>
<g><path style="opacity:1" fill="#f5fcfd" d="M 590.5,459.5 C 600.389,458.65 603.389,462.816 599.5,472C 589.566,475.401 586.066,471.901 589,461.5C 589.717,460.956 590.217,460.289 590.5,459.5 Z"/></g>
<g><path style="opacity:0.908" fill="#02c7dd" d="M 598.5,688.5 C 599.869,689.968 601.036,691.635 602,693.5C 602.741,692.359 603.575,692.359 604.5,693.5C 604.489,692.559 604.989,691.892 606,691.5C 609.193,692.582 611.526,694.582 613,697.5C 613.399,697.272 613.565,696.938 613.5,696.5C 615.927,696.523 618.26,697.023 620.5,698C 625.374,700.851 630.374,703.518 635.5,706C 636.59,708.652 638.59,710.152 641.5,710.5C 645.159,713.327 648.326,716.66 651,720.5C 651.483,721.448 651.649,722.448 651.5,723.5C 647.464,723.647 644.131,722.147 641.5,719C 633.42,716.09 625.753,712.424 618.5,708C 610.201,705.846 602.201,703.013 594.5,699.5C 578.833,705.166 563.5,711.666 548.5,719C 545.869,722.147 542.536,723.647 538.5,723.5C 539.383,721.09 540.55,718.757 542,716.5C 548.35,711.434 554.85,706.601 561.5,702C 563.813,701.338 566.146,700.838 568.5,700.5C 568.5,699.5 568.5,698.5 568.5,697.5C 571.271,697.579 573.937,697.079 576.5,696C 573.314,695.251 570.314,694.085 567.5,692.5C 558.497,701.002 547.83,706.335 535.5,708.5C 518.442,709.048 501.442,710.048 484.5,711.5C 483.224,705.524 484.89,700.691 489.5,697C 495.076,694.754 499.409,691.087 502.5,686C 507.041,684.145 511.208,681.645 515,678.5C 518.528,677.576 522.028,676.576 525.5,675.5C 525.291,674.914 524.957,674.414 524.5,674C 520.162,671.831 515.828,669.664 511.5,667.5C 493.072,675.225 473.739,677.725 453.5,675C 448.854,672.591 443.854,670.925 438.5,670C 434.545,668.269 430.878,666.102 427.5,663.5C 425.626,663.39 424.126,664.056 423,665.5C 421.731,664.095 421.231,662.429 421.5,660.5C 428.274,658.319 434.441,654.986 440,650.5C 452.457,646.369 465.291,644.202 478.5,644C 473.088,639.244 467.421,634.911 461.5,631C 459.099,626.566 456.433,626.4 453.5,630.5C 446.812,633.236 439.812,634.069 432.5,633C 429.623,631.873 426.623,631.206 423.5,631C 408.754,627.63 396.088,620.63 385.5,610C 383.444,609.689 381.444,609.189 379.5,608.5C 378.289,607.726 378.289,606.893 379.5,606C 382.275,605.409 384.775,604.242 387,602.5C 392.158,601.459 397.325,600.459 402.5,599.5C 402.709,598.914 403.043,598.414 403.5,598C 412.167,597.667 420.833,597.333 429.5,597C 425.305,591.304 421.305,585.471 417.5,579.5C 410.867,578.578 404.2,577.745 397.5,577C 391.296,574.065 384.962,571.399 378.5,569C 374.735,565.322 370.568,562.156 366,559.5C 365.598,558.128 365.098,556.795 364.5,555.5C 361.927,554.346 359.761,552.68 358,550.5C 357.517,549.552 357.351,548.552 357.5,547.5C 354.794,547.425 352.127,547.092 349.5,546.5C 350.435,543.081 352.768,541.247 356.5,541C 366.167,540.333 375.833,540.333 385.5,541C 389.488,541.282 393.321,542.115 397,543.5C 396.652,538.102 395.652,532.769 394,527.5C 389.529,526.741 385.029,525.908 380.5,525C 361.674,515.847 350.174,501.014 346,480.5C 340.928,475.973 341.928,473.973 349,474.5C 355.433,476.033 361.933,477.2 368.5,478C 374.32,480.831 380.153,483.664 386,486.5C 386.288,479.831 386.122,473.164 385.5,466.5C 368.858,464.599 358.024,455.599 353,439.5C 352.576,435.001 351.742,430.667 350.5,426.5C 351.955,418.325 352.955,409.992 353.5,401.5C 354.243,400.092 355.077,398.759 356,397.5C 357.333,399.167 358.667,400.833 360,402.5C 361.814,401.24 363.647,401.24 365.5,402.5C 364.45,404.102 365.117,404.935 367.5,405C 369.996,408.917 373.33,411.917 377.5,414C 379.985,417.814 382.818,421.314 386,424.5C 386.216,426.384 386.883,428.051 388,429.5C 388.995,424.547 389.662,419.547 390,414.5C 390.5,413.333 391.333,412.5 392.5,412C 390,410.167 387.5,408.333 385,406.5C 384.517,405.552 384.351,404.552 384.5,403.5C 383.325,403.719 382.325,403.386 381.5,402.5C 375.637,394.227 372.971,384.894 373.5,374.5C 373.49,363.398 374.824,352.565 377.5,342C 377.089,340.856 376.756,339.689 376.5,338.5C 380.488,331.642 382.821,332.309 383.5,340.5C 384.552,340.351 385.552,340.517 386.5,341C 389.076,344.287 392.076,347.12 395.5,349.5C 399.122,354.985 402.622,360.651 406,366.5C 408.664,363.647 410.831,360.481 412.5,357C 410.144,352.934 407.978,348.768 406,344.5C 404.026,330.497 404.026,316.497 406,302.5C 410.009,294.973 412.509,286.973 413.5,278.5C 420.008,286.523 425.508,295.19 430,304.5C 432.702,311.9 434.036,319.566 434,327.5C 439.561,322.858 442.394,316.858 442.5,309.5C 446.299,304.201 450.632,299.367 455.5,295C 466.628,290.249 477.962,286.249 489.5,283C 492.099,282.231 494.599,282.398 497,283.5C 497.755,287.817 496.921,291.817 494.5,295.5C 488.402,305.095 481.736,314.262 474.5,323C 470.108,325.525 465.775,328.025 461.5,330.5C 455.359,331.051 449.359,332.218 443.5,334C 448.351,336.95 453.684,338.45 459.5,338.5C 469.577,341.185 479.577,343.851 489.5,346.5C 477.613,357.113 463.947,364.613 448.5,369C 452.442,369.993 456.442,370.66 460.5,371C 463.722,372.99 464.222,375.49 462,378.5C 453.956,386.977 445.456,395.143 436.5,403C 430.5,406.333 424.5,409.667 418.5,413C 425.825,412.981 433.158,412.481 440.5,411.5C 441.668,409.783 443.335,409.116 445.5,409.5C 446.014,411.512 446.18,413.512 446,415.5C 444.702,416.56 443.535,417.726 442.5,419C 435.953,436.527 425.286,450.861 410.5,462C 406.885,462.732 403.552,464.065 400.5,466C 398.527,466.495 396.527,466.662 394.5,466.5C 395.133,475.152 395.633,483.818 396,492.5C 396.471,490.754 397.138,489.087 398,487.5C 402.855,481.412 408.355,476.079 414.5,471.5C 419.015,468.212 424.015,466.045 429.5,465C 430.45,462.09 432.45,460.923 435.5,461.5C 433.924,476.281 430.424,490.614 425,504.5C 420.456,512.5 414.289,518.833 406.5,523.5C 405.065,524.929 404.065,526.595 403.5,528.5C 404.911,534.494 407.077,540.161 410,545.5C 412.096,540.876 413.596,536.042 414.5,531C 418.551,526.173 422.051,521.007 425,515.5C 428.111,514.049 430.944,512.215 433.5,510C 434.793,509.51 436.127,509.343 437.5,509.5C 437.384,506.09 439.05,504.756 442.5,505.5C 442.667,520.17 442.5,534.837 442,549.5C 438.895,559.274 434.061,568.107 427.5,576C 432.084,581.576 436.251,587.41 440,593.5C 440.315,585.136 440.982,576.803 442,568.5C 444.728,562.84 447.561,557.173 450.5,551.5C 453.337,550.491 454.67,548.491 454.5,545.5C 456.827,545.753 458.827,545.086 460.5,543.5C 461.086,543.709 461.586,544.043 462,544.5C 461.631,547.79 461.631,551.123 462,554.5C 462.408,557.42 463.741,559.754 466,561.5C 468.432,566.887 470.099,572.554 471,578.5C 471.906,589.559 471.573,600.559 470,611.5C 468.692,613.641 467.192,615.641 465.5,617.5C 470.831,622.664 476.331,627.664 482,632.5C 480.621,624.684 480.288,616.684 481,608.5C 482.578,599.856 485.411,591.689 489.5,584C 488.713,581.901 488.38,579.734 488.5,577.5C 489.552,577.351 490.552,577.517 491.5,578C 493.338,579.84 495.338,581.507 497.5,583C 497.167,583.333 496.833,583.667 496.5,584C 498.585,586.419 499.585,589.253 499.5,592.5C 500.822,592.33 501.989,592.663 503,593.5C 509.214,605.927 514.88,618.593 520,631.5C 520.996,635.431 521.496,639.431 521.5,643.5C 521.133,649.447 520.466,655.113 519.5,660.5C 522.599,660.092 524.933,661.259 526.5,664C 529.091,665.718 531.758,666.218 534.5,665.5C 530.345,656.369 528.345,646.703 528.5,636.5C 529.571,630.48 529.571,624.48 528.5,618.5C 528.58,616.67 529.413,615.337 531,614.5C 533.283,616.118 534.783,618.285 535.5,621C 536.833,621.333 538.167,621.667 539.5,622C 543.694,626.694 548.361,630.861 553.5,634.5C 558.243,639.743 562.41,645.41 566,651.5C 569.884,660.335 571.551,669.669 571,679.5C 572.871,678.332 574.371,678.832 575.5,681C 574.167,682 574.167,683 575.5,684C 583.237,685.69 590.904,687.19 598.5,688.5 Z M 399.5,414.5 C 404.062,414.38 408.728,414.713 413.5,415.5C 410.204,418.296 406.537,420.463 402.5,422C 401.845,423.487 400.845,424.653 399.5,425.5C 398.54,421.861 398.54,418.195 399.5,414.5 Z M 417.5,367.5 C 420.843,368.368 424.176,369.368 427.5,370.5C 428.386,371.325 428.719,372.325 428.5,373.5C 423.166,373.112 418.333,374.446 414,377.5C 414.653,374.044 415.819,370.711 417.5,367.5 Z"/></g>
<g><path style="opacity:0.925" fill="#02c7dd" d="M 613.5,696.5 C 613.565,696.938 613.399,697.272 613,697.5C 611.526,694.582 609.193,692.582 606,691.5C 604.989,691.892 604.489,692.559 604.5,693.5C 603.575,692.359 602.741,692.359 602,693.5C 601.036,691.635 599.869,689.968 598.5,688.5C 603.479,686.034 608.812,684.701 614.5,684.5C 613.724,678.738 615.558,677.405 620,680.5C 620.333,673.833 620.667,667.167 621,660.5C 621.83,655.841 623.497,651.507 626,647.5C 630.363,641.973 634.863,636.473 639.5,631C 643.591,628.437 647.258,625.437 650.5,622C 652.218,621.654 653.885,621.154 655.5,620.5C 656.383,614.025 658.716,613.192 662.5,618C 661.701,628.466 661.201,638.966 661,649.5C 659.665,655.355 657.498,660.855 654.5,666C 655.151,669.078 656.151,669.078 657.5,666C 659.74,665.023 662.073,664.523 664.5,664.5C 664.746,661.53 666.412,660.197 669.5,660.5C 669.334,650.161 669.5,639.828 670,629.5C 674.262,619.453 679.262,609.787 685,600.5C 686.53,594.875 689.197,589.875 693,585.5C 693.494,583.866 693.66,582.199 693.5,580.5C 695.929,580.415 697.929,579.415 699.5,577.5C 702.122,579.513 702.122,581.679 699.5,584C 702.388,586.641 704.555,589.808 706,593.5C 706.964,601.393 708.131,609.226 709.5,617C 708.594,620.427 707.927,623.927 707.5,627.5C 707.833,629.167 708.167,630.833 708.5,632.5C 713.449,627.162 718.782,622.162 724.5,617.5C 722.841,616.183 721.674,614.517 721,612.5C 719.267,606.735 717.767,600.901 716.5,595C 718.013,585.408 719.846,575.908 722,566.5C 724.39,563.611 725.557,560.277 725.5,556.5C 726.5,556.5 727.5,556.5 728.5,556.5C 728.754,552.207 729.087,547.874 729.5,543.5C 731.173,545.086 733.173,545.753 735.5,545.5C 736.937,549.144 739.104,552.477 742,555.5C 748.415,566.552 751.415,578.552 751,591.5C 755.483,587.184 758.983,582.184 761.5,576.5C 758.796,570.082 755.129,564.082 750.5,558.5C 749.44,552.724 748.274,547.058 747,541.5C 746.902,529.481 747.402,517.481 748.5,505.5C 751.114,505.277 752.781,506.444 753.5,509C 760.155,511.657 765.655,515.823 770,521.5C 771.223,525.615 773.223,529.282 776,532.5C 777.937,536.646 779.271,540.979 780,545.5C 783.471,540.365 785.638,534.698 786.5,528.5C 785.888,524.556 783.555,522.39 779.5,522C 776.667,518.5 773.5,515.333 770,512.5C 767.043,507.582 764.376,502.582 762,497.5C 758.994,486.833 756.494,476 754.5,465C 754.743,461.997 756.41,460.83 759.5,461.5C 759.281,462.675 759.614,463.675 760.5,464.5C 767.186,466.343 773.186,469.51 778.5,474C 784.085,478.914 788.919,484.414 793,490.5C 794.435,482.611 794.935,474.611 794.5,466.5C 792.473,466.662 790.473,466.495 788.5,466C 785.559,463.761 782.226,462.428 778.5,462C 766.466,452.433 757.133,440.6 750.5,426.5C 749.067,423.667 748.4,420.667 748.5,417.5C 745.983,416.99 743.983,415.656 742.5,413.5C 743.325,412.614 744.325,412.281 745.5,412.5C 745.5,411.5 745.5,410.5 745.5,409.5C 747.681,409.284 749.347,410.117 750.5,412C 757.535,412.493 764.535,412.826 771.5,413C 766.839,410.677 762.172,408.343 757.5,406C 746.43,396.935 735.93,387.102 726,376.5C 725.517,375.552 725.351,374.552 725.5,373.5C 727.359,373.539 728.692,372.706 729.5,371C 733.219,370.612 736.886,369.945 740.5,369C 732.211,365.493 723.877,361.826 715.5,358C 712.005,354.749 708.005,352.249 703.5,350.5C 702.05,349.15 701.383,347.484 701.5,345.5C 714.688,342.361 728.022,339.528 741.5,337C 743.002,336.417 744.335,335.584 745.5,334.5C 739.675,332.354 733.675,330.854 727.5,330C 723.491,327.663 719.491,325.329 715.5,323C 712.268,319.238 709.101,315.404 706,311.5C 703.458,307.801 701.624,303.801 700.5,299.5C 699.325,299.719 698.325,299.386 697.5,298.5C 693.953,293.789 692.62,288.456 693.5,282.5C 700.418,284.145 707.418,285.645 714.5,287C 720.914,289.367 727.247,291.867 733.5,294.5C 743.641,301.26 749.641,310.76 751.5,323C 753.333,325.167 755.167,327.333 757,329.5C 756.776,319.857 758.109,310.523 761,301.5C 762.011,300.663 763.178,300.33 764.5,300.5C 764.523,298.073 765.023,295.74 766,293.5C 768.064,291.875 769.231,289.708 769.5,287C 772.625,285.204 774.625,282.537 775.5,279C 776.449,278.383 777.282,278.549 778,279.5C 778.29,283.863 778.79,288.196 779.5,292.5C 786.56,307.823 788.393,323.823 785,340.5C 783.116,345.993 780.95,351.326 778.5,356.5C 780.196,360.756 782.363,364.756 785,368.5C 785.5,366.5 786,364.5 786.5,362.5C 789.01,358.144 791.51,353.81 794,349.5C 797.961,346.849 801.628,343.849 805,340.5C 806.08,338.004 807.414,335.67 809,333.5C 810.186,335.677 812.019,336.677 814.5,336.5C 814.173,338.488 813.84,340.488 813.5,342.5C 814.541,350.619 815.707,358.619 817,366.5C 817.667,371.833 817.667,377.167 817,382.5C 815.727,386.358 814.727,390.358 814,394.5C 809.469,401.023 804.302,407.023 798.5,412.5C 799.274,416.779 799.774,421.113 800,425.5C 800.915,426.328 801.581,427.328 802,428.5C 803.439,426.725 804.439,424.725 805,422.5C 806.11,420.963 807.61,420.297 809.5,420.5C 810.662,414.998 813.996,411.332 819.5,409.5C 821.265,406.769 822.932,404.102 824.5,401.5C 828.852,403.486 831.519,402.152 832.5,397.5C 833.5,397.5 834.5,397.5 835.5,397.5C 837.934,405.434 838.934,413.6 838.5,422C 838.333,426.833 838.167,431.667 838,436.5C 835.49,446.354 830.324,454.521 822.5,461C 819.352,462.605 816.019,463.605 812.5,464C 809.983,466.251 806.983,467.084 803.5,466.5C 803.334,473.175 803.5,479.842 804,486.5C 809.721,483.406 815.554,480.573 821.5,478C 829.938,476.77 838.271,475.604 846.5,474.5C 846.5,475.833 846.5,477.167 846.5,478.5C 845.5,478.5 844.5,478.5 843.5,478.5C 842.37,493.256 836.037,505.423 824.5,515C 816.498,522.168 807.165,526.335 796.5,527.5C 795.489,533.198 793.489,538.532 790.5,543.5C 790.833,543.833 791.167,544.167 791.5,544.5C 792.328,543.585 793.328,542.919 794.5,542.5C 807.767,540.558 821.1,540.058 834.5,541C 842.726,544.466 842.392,546.799 833.5,548C 818.083,568.541 797.417,578.708 771.5,578.5C 769.241,585.521 765.574,591.688 760.5,597C 769.494,597.5 778.494,597.666 787.5,597.5C 787.5,598.5 787.5,599.5 787.5,600.5C 796.497,600.188 804.497,602.688 811.5,608C 809.038,609.216 806.371,609.882 803.5,610C 799.261,614.909 794.428,619.076 789,622.5C 778.573,626.477 768.073,629.977 757.5,633C 748.181,634.569 739.681,632.735 732,627.5C 724.91,632.635 718.077,638.135 711.5,644C 724.706,644.3 737.54,646.467 750,650.5C 755.975,654.383 762.142,657.716 768.5,660.5C 768.619,665.774 766.619,666.774 762.5,663.5C 743.668,675.353 723.001,679.019 700.5,674.5C 692.896,672.798 685.563,670.464 678.5,667.5C 672.92,669.29 667.92,672.124 663.5,676C 667.117,676.353 670.617,677.186 674,678.5C 678.288,681.394 682.788,683.894 687.5,686C 692.925,691.77 698.925,696.936 705.5,701.5C 705.833,703 706.167,704.5 706.5,706C 706.371,707.981 705.704,709.647 704.5,711C 687.944,709.942 671.278,709.108 654.5,708.5C 642.216,706.642 631.716,701.309 623,692.5C 619.733,693.773 616.566,695.106 613.5,696.5 Z M 775.5,415.5 C 779.702,414.201 784.036,414.201 788.5,415.5C 789.187,417.555 790.354,419.221 792,420.5C 792.667,422.5 792.667,424.5 792,426.5C 790.5,425 789,423.5 787.5,422C 783.451,419.911 779.451,417.744 775.5,415.5 Z M 768.5,367.5 C 770.167,367.5 771.833,367.5 773.5,367.5C 774.511,370.879 775.344,374.213 776,377.5C 771.856,374.951 767.356,373.284 762.5,372.5C 762.291,371.914 761.957,371.414 761.5,371C 764.187,370.272 766.52,369.105 768.5,367.5 Z"/></g>
<g><path style="opacity:0.79" fill="#02b2c7" d="M 88.5,805.5 C 97.1667,805.5 105.833,805.5 114.5,805.5C 120.17,822.492 126.003,839.492 132,856.5C 138.399,839.968 144.399,823.302 150,806.5C 158.415,805.517 166.915,805.183 175.5,805.5C 175.664,808.187 175.497,810.854 175,813.5C 172.931,814.264 170.764,814.764 168.5,815C 167.874,815.75 167.374,816.584 167,817.5C 166.333,834.167 166.333,850.833 167,867.5C 167.374,868.416 167.874,869.25 168.5,870C 170.764,870.236 172.931,870.736 175,871.5C 175.497,873.81 175.663,876.143 175.5,878.5C 165.833,878.5 156.167,878.5 146.5,878.5C 146.5,875.833 146.5,873.167 146.5,870.5C 148.262,870.643 149.929,870.309 151.5,869.5C 152.666,856.179 152.833,842.846 152,829.5C 146.325,845.551 140.659,861.551 135,877.5C 131.404,879.101 128.071,878.768 125,876.5C 119.115,860.508 113.448,844.508 108,828.5C 107.167,842.179 107.334,855.846 108.5,869.5C 110.382,870.093 112.215,870.76 114,871.5C 114.497,873.81 114.663,876.143 114.5,878.5C 105.833,878.5 97.1667,878.5 88.5,878.5C 88.3367,876.143 88.5034,873.81 89,871.5C 91.8003,870.872 94.467,869.872 97,868.5C 97.6667,851.5 97.6667,834.5 97,817.5C 94.8467,814.876 92.0134,813.876 88.5,814.5C 88.5,811.5 88.5,808.5 88.5,805.5 Z"/></g>
<g><path style="opacity:0.783" fill="#04b0c5" d="M 205.5,805.5 C 209.555,805.176 213.555,805.509 217.5,806.5C 223.668,823.844 229.835,841.177 236,858.5C 237.908,861.215 239.241,864.215 240,867.5C 241.667,869.628 243.834,870.961 246.5,871.5C 247.374,873.747 247.708,876.08 247.5,878.5C 237.494,878.666 227.494,878.5 217.5,878C 215.628,872.679 217.628,869.845 223.5,869.5C 223.833,868.5 224.167,867.5 224.5,866.5C 222.913,863.33 221.913,859.997 221.5,856.5C 213.804,856.169 206.138,856.503 198.5,857.5C 196.485,860.74 195.152,864.24 194.5,868C 195.167,868.667 195.833,869.333 196.5,870C 198.764,870.236 200.931,870.736 203,871.5C 203.497,873.81 203.663,876.143 203.5,878.5C 194.5,878.5 185.5,878.5 176.5,878.5C 176.5,875.833 176.5,873.167 176.5,870.5C 179.793,870.685 182.46,869.518 184.5,867C 186.043,860.763 187.71,854.596 189.5,848.5C 190.5,848.5 191.5,848.5 192.5,848.5C 193.382,842.304 194.882,836.304 197,830.5C 197.667,829.167 198.667,828.167 200,827.5C 201.575,820.043 203.409,812.71 205.5,805.5 Z M 209.5,824.5 C 212.173,829.751 214.007,835.418 215,841.5C 216.073,843.547 217.239,845.547 218.5,847.5C 212.863,848.663 207.196,848.83 201.5,848C 204.869,840.391 207.536,832.558 209.5,824.5 Z"/></g>
<g><path style="opacity:0.795" fill="#02b3c6" d="M 248.5,805.5 C 261.027,805.215 273.527,805.548 286,806.5C 289.898,808.447 293.732,810.614 297.5,813C 298.633,816.064 300.133,818.897 302,821.5C 303.876,844.119 293.376,854.119 270.5,851.5C 270.171,857.537 270.504,863.537 271.5,869.5C 274.503,870.085 277.503,870.752 280.5,871.5C 281.374,873.747 281.708,876.08 281.5,878.5C 270.5,878.5 259.5,878.5 248.5,878.5C 248.5,875.833 248.5,873.167 248.5,870.5C 250.92,870.708 253.253,870.374 255.5,869.5C 256.833,851.5 256.833,833.5 255.5,815.5C 253.253,814.626 250.92,814.292 248.5,814.5C 248.5,811.5 248.5,808.5 248.5,805.5 Z M 270.5,814.5 C 274.56,814.485 278.56,814.985 282.5,816C 284.049,817.214 285.215,818.714 286,820.5C 286.273,823.393 287.107,826.06 288.5,828.5C 287.033,831.266 286.2,834.266 286,837.5C 285.535,838.931 284.701,840.097 283.5,841C 279.27,842.29 274.936,842.79 270.5,842.5C 270.5,833.167 270.5,823.833 270.5,814.5 Z"/></g>
<g><path style="opacity:0.775" fill="#02b4c7" d="M 305.5,805.5 C 318.524,805.223 331.524,805.556 344.5,806.5C 355.15,809.657 360.817,816.824 361.5,828C 361.618,838.44 356.952,845.773 347.5,850C 341.243,851.317 334.909,851.817 328.5,851.5C 328.171,857.206 328.505,862.872 329.5,868.5C 332.22,870.111 335.22,870.944 338.5,871C 339.435,873.381 339.768,875.881 339.5,878.5C 328.167,878.5 316.833,878.5 305.5,878.5C 305.337,876.143 305.503,873.81 306,871.5C 308.899,871.023 311.566,870.023 314,868.5C 314.667,851.167 314.667,833.833 314,816.5C 311.519,814.686 308.685,814.02 305.5,814.5C 305.5,811.5 305.5,808.5 305.5,805.5 Z M 328.5,814.5 C 343.437,813.618 349.27,820.618 346,835.5C 341.923,841.812 336.09,844.145 328.5,842.5C 328.5,833.167 328.5,823.833 328.5,814.5 Z"/></g>
<g><path style="opacity:0.715" fill="#03b1c4" d="M 365.5,805.5 C 382.503,805.333 399.503,805.5 416.5,806C 417.479,812.744 417.812,819.578 417.5,826.5C 414.833,826.5 412.167,826.5 409.5,826.5C 409.799,824.396 409.466,822.396 408.5,820.5C 407.002,818.841 405.502,817.175 404,815.5C 398.55,814.57 393.05,814.237 387.5,814.5C 387.5,822.167 387.5,829.833 387.5,837.5C 395.5,837.5 403.5,837.5 411.5,837.5C 411.768,840.119 411.435,842.619 410.5,845C 402.841,845.5 395.174,845.666 387.5,845.5C 387.5,853.5 387.5,861.5 387.5,869.5C 394.508,869.666 401.508,869.5 408.5,869C 411.312,866.065 412.645,862.565 412.5,858.5C 415.711,858.012 418.544,858.679 421,860.5C 421.923,866.5 421.423,872.334 419.5,878C 401.503,878.5 383.503,878.667 365.5,878.5C 365.5,875.833 365.5,873.167 365.5,870.5C 368.206,870.425 370.873,870.092 373.5,869.5C 373.833,851.488 373.5,833.488 372.5,815.5C 370.253,814.626 367.92,814.292 365.5,814.5C 365.5,811.5 365.5,808.5 365.5,805.5 Z"/></g>
<g><path style="opacity:0.805" fill="#02b2c6" d="M 424.5,805.5 C 437.504,805.333 450.504,805.5 463.5,806C 481.884,810.744 490.884,822.744 490.5,842C 491.121,855.678 486.121,866.678 475.5,875C 473.167,876 470.833,877 468.5,878C 453.837,878.5 439.17,878.667 424.5,878.5C 423.758,871.909 426.758,868.909 433.5,869.5C 433.667,851.497 433.5,833.497 433,815.5C 430.333,814.833 427.667,814.167 425,813.5C 424.503,810.854 424.336,808.187 424.5,805.5 Z M 447.5,814.5 C 454.793,813.764 461.46,815.264 467.5,819C 468.798,821.906 470.632,824.406 473,826.5C 474.085,831.673 475.251,836.84 476.5,842C 475.155,847.379 473.988,852.879 473,858.5C 470.69,860.137 469.19,862.304 468.5,865C 466.654,867.092 464.321,868.426 461.5,869C 456.845,869.499 452.179,869.666 447.5,869.5C 447.5,851.167 447.5,832.833 447.5,814.5 Z"/></g>
<g><path style="opacity:0.798" fill="#00b2c6" d="M 520.5,805.5 C 530.833,805.5 541.167,805.5 551.5,805.5C 551.5,808.5 551.5,811.5 551.5,814.5C 549.473,814.338 547.473,814.505 545.5,815C 544.484,815.519 543.818,816.353 543.5,817.5C 542.167,834.167 542.167,850.833 543.5,867.5C 543.818,868.647 544.484,869.481 545.5,870C 547.473,870.495 549.473,870.662 551.5,870.5C 551.5,873.167 551.5,875.833 551.5,878.5C 541.167,878.5 530.833,878.5 520.5,878.5C 520.337,876.143 520.503,873.81 521,871.5C 523.8,870.872 526.467,869.872 529,868.5C 529.667,850.833 529.667,833.167 529,815.5C 526.281,814.556 523.448,814.223 520.5,814.5C 520.5,811.5 520.5,808.5 520.5,805.5 Z"/></g>
<g><path style="opacity:0.771" fill="#01b2c6" d="M 556.5,805.5 C 563.175,805.334 569.842,805.5 576.5,806C 587.769,822.258 598.602,838.758 609,855.5C 609.667,842.833 609.667,830.167 609,817.5C 606.695,815.07 603.862,814.07 600.5,814.5C 600.5,811.5 600.5,808.5 600.5,805.5C 609.167,805.5 617.833,805.5 626.5,805.5C 626.5,808.5 626.5,811.5 626.5,814.5C 624.473,814.338 622.473,814.505 620.5,815C 619.151,815.772 618.318,816.939 618,818.5C 617.5,838.497 617.333,858.497 617.5,878.5C 613.774,878.823 610.107,878.489 606.5,877.5C 596.456,861.404 586.29,845.404 576,829.5C 575.167,842.846 575.334,856.179 576.5,869.5C 582.402,869.229 584.902,871.896 584,877.5C 574.917,878.485 565.751,878.818 556.5,878.5C 556.5,875.833 556.5,873.167 556.5,870.5C 559.602,870.846 562.435,870.179 565,868.5C 565.667,851.167 565.667,833.833 565,816.5C 562.519,814.686 559.685,814.02 556.5,814.5C 556.5,811.5 556.5,808.5 556.5,805.5 Z"/></g>
<g><path style="opacity:0.794" fill="#07b0c6" d="M 638.5,866.5 C 639.174,851.098 639.841,835.598 640.5,820C 639.956,819.283 639.289,818.783 638.5,818.5C 638.67,817.178 638.337,816.011 637.5,815C 635.19,814.503 632.857,814.337 630.5,814.5C 630.5,811.5 630.5,808.5 630.5,805.5C 637.532,805.17 644.532,805.503 651.5,806.5C 654.842,811.506 658.175,816.506 661.5,821.5C 662.946,823.618 663.613,825.951 663.5,828.5C 664.822,828.33 665.989,828.663 667,829.5C 672.31,837.633 677.31,845.966 682,854.5C 682.833,841.487 682.666,828.487 681.5,815.5C 678.916,814.607 676.249,814.274 673.5,814.5C 673.5,811.5 673.5,808.5 673.5,805.5C 682.506,805.334 691.506,805.5 700.5,806C 703.167,808.667 703.167,811.333 700.5,814C 698.109,814.287 695.776,814.787 693.5,815.5C 692.667,836.159 692.167,856.825 692,877.5C 688.591,878.622 685.091,878.789 681.5,878C 678.877,874.588 676.377,871.088 674,867.5C 673.51,866.207 673.343,864.873 673.5,863.5C 672.325,863.719 671.325,863.386 670.5,862.5C 668.732,858.77 666.898,855.103 665,851.5C 661.321,847.998 658.488,843.831 656.5,839C 654.328,836.495 652.161,833.995 650,831.5C 649.333,843.833 649.333,856.167 650,868.5C 652.667,869.833 655.333,871.167 658,872.5C 658.495,874.473 658.662,876.473 658.5,878.5C 649.167,878.5 639.833,878.5 630.5,878.5C 630.5,875.833 630.5,873.167 630.5,870.5C 632.527,870.662 634.527,870.495 636.5,870C 637.973,869.29 638.64,868.124 638.5,866.5 Z"/></g>
<g><path style="opacity:0.819" fill="#03b2c6" d="M 726.5,805.5 C 734.71,805.212 742.876,805.545 751,806.5C 754.113,808.662 757.28,810.829 760.5,813C 766.116,818.266 769.282,824.766 770,832.5C 772.398,845.854 770.065,858.188 763,869.5C 756.512,877.238 748.179,880.571 738,879.5C 727.672,880.978 719.338,877.645 713,869.5C 705.409,856.203 703.409,841.869 707,826.5C 709.325,822.218 711.658,817.885 714,813.5C 718.609,811.365 722.776,808.698 726.5,805.5 Z M 732.5,814.5 C 745.53,812.858 753.196,818.525 755.5,831.5C 758.229,844.647 755.896,856.647 748.5,867.5C 739.824,872.14 731.991,871.14 725,864.5C 719.518,850.635 719.185,836.635 724,822.5C 726.074,818.923 728.907,816.256 732.5,814.5 Z"/></g>
<g><path style="opacity:0.764" fill="#03b3c6" d="M 769.5,805.5 C 779.5,805.5 789.5,805.5 799.5,805.5C 799.5,808.5 799.5,811.5 799.5,814.5C 796.62,814.033 794.287,814.866 792.5,817C 796.5,830.332 801,843.499 806,856.5C 808.76,852.168 810.927,847.501 812.5,842.5C 815.186,833.077 817.853,823.744 820.5,814.5C 817.833,814.5 815.167,814.5 812.5,814.5C 812.5,811.5 812.5,808.5 812.5,805.5C 821.5,805.5 830.5,805.5 839.5,805.5C 839.664,808.187 839.497,810.854 839,813.5C 836.876,814.227 834.709,814.894 832.5,815.5C 831.338,819.824 829.505,823.824 827,827.5C 821.515,843.769 816.182,860.103 811,876.5C 806.894,879.078 802.727,879.078 798.5,876.5C 791.785,855.955 784.619,835.622 777,815.5C 774.667,814.833 772.333,814.167 770,813.5C 769.503,810.854 769.336,808.187 769.5,805.5 Z"/></g>
<g><path style="opacity:0.783" fill="#02b2c6" d="M 858.5,805.5 C 861.85,805.335 865.183,805.502 868.5,806C 869,806.5 869.5,807 870,807.5C 876.758,827.231 883.758,846.897 891,866.5C 892.866,869.434 895.533,871.1 899,871.5C 899.497,873.81 899.663,876.143 899.5,878.5C 889.5,878.5 879.5,878.5 869.5,878.5C 869.5,875.833 869.5,873.167 869.5,870.5C 872.665,871.036 875.331,870.203 877.5,868C 876.291,864.476 874.958,860.976 873.5,857.5C 865.862,856.503 858.196,856.169 850.5,856.5C 850.245,859.016 849.411,861.35 848,863.5C 846.159,869.494 848.326,871.827 854.5,870.5C 854.5,873.167 854.5,875.833 854.5,878.5C 845.833,878.5 837.167,878.5 828.5,878.5C 828.5,875.833 828.5,873.167 828.5,870.5C 832.147,870.378 834.981,868.712 837,865.5C 844.822,845.698 851.989,825.698 858.5,805.5 Z M 861.5,826.5 C 863.132,826.825 864.132,827.825 864.5,829.5C 866.058,835.888 867.725,842.221 869.5,848.5C 864.125,848.828 858.792,848.495 853.5,847.5C 856.967,840.761 859.633,833.761 861.5,826.5 Z"/></g>
<g><path style="opacity:0.737" fill="#01b4c8" d="M 893.5,805.5 C 912.5,805.5 931.5,805.5 950.5,805.5C 951.232,812.476 951.565,819.476 951.5,826.5C 948.428,826.817 945.428,826.484 942.5,825.5C 941.618,822.209 940.952,818.876 940.5,815.5C 936.548,814.728 932.548,814.395 928.5,814.5C 928.333,832.503 928.5,850.503 929,868.5C 932.213,869.772 935.38,871.105 938.5,872.5C 939.614,873.723 939.781,875.056 939,876.5C 927.754,878.465 916.254,879.132 904.5,878.5C 904.337,876.143 904.503,873.81 905,871.5C 908.227,871.047 911.227,870.047 914,868.5C 914.5,850.503 914.667,832.503 914.5,814.5C 911.272,814.299 908.105,814.633 905,815.5C 903.095,818.906 901.261,822.406 899.5,826C 897.19,826.497 894.857,826.663 892.5,826.5C 892.326,819.465 892.659,812.465 893.5,805.5 Z"/></g>
<g><path style="opacity:0.802" fill="#02b2c5" d="M 953.5,805.5 C 964.258,804.872 974.758,805.538 985,807.5C 986.128,812.712 983.961,815.212 978.5,815C 977.107,816.171 976.273,817.671 976,819.5C 975.333,834.833 975.333,850.167 976,865.5C 976.801,869.633 979.301,871.466 983.5,871C 985.673,872.865 986.007,875.031 984.5,877.5C 973.854,878.499 963.187,878.832 952.5,878.5C 951.758,871.909 954.758,868.909 961.5,869.5C 961.667,851.497 961.5,833.497 961,815.5C 953.383,815.921 950.883,812.588 953.5,805.5 Z"/></g>
<g><path style="opacity:0.813" fill="#03b3c7" d="M 1010.5,805.5 C 1018.51,805.334 1026.51,805.5 1034.5,806C 1049.72,813.099 1056.39,825.099 1054.5,842C 1056.1,857.897 1050.1,869.897 1036.5,878C 1027.5,880 1018.5,880 1009.5,878C 997.794,872.79 991.961,863.624 992,850.5C 991.333,849.833 990.667,849.167 990,848.5C 989.333,844.5 989.333,840.5 990,836.5C 990.419,835.328 991.085,834.328 992,833.5C 992.001,826.485 994.001,820.152 998,814.5C 1002.32,811.601 1006.49,808.601 1010.5,805.5 Z M 1017.5,814.5 C 1029.29,813.055 1036.62,818.055 1039.5,829.5C 1041.19,840.686 1040.52,851.686 1037.5,862.5C 1029.56,871.822 1020.56,872.822 1010.5,865.5C 1007.51,861.357 1006.01,856.691 1006,851.5C 1005.26,843.125 1005.59,834.792 1007,826.5C 1008.96,821.044 1012.46,817.044 1017.5,814.5 Z"/></g>
<g><path style="opacity:0.739" fill="#01b3c6" d="M 1060.5,805.5 C 1067.83,805.5 1075.17,805.5 1082.5,805.5C 1082.35,806.552 1082.52,807.552 1083,808.5C 1093.29,823.445 1103.29,838.445 1113,853.5C 1113.67,841.167 1113.67,828.833 1113,816.5C 1110.52,814.686 1107.69,814.02 1104.5,814.5C 1104.5,811.5 1104.5,808.5 1104.5,805.5C 1113.75,805.182 1122.92,805.515 1132,806.5C 1133.73,812.897 1131.23,815.897 1124.5,815.5C 1123.5,836.489 1123.17,857.489 1123.5,878.5C 1119.82,878.665 1116.15,878.499 1112.5,878C 1110.55,876.266 1109.55,874.099 1109.5,871.5C 1108.32,871.719 1107.32,871.386 1106.5,870.5C 1105.13,866.544 1103.3,862.877 1101,859.5C 1092.79,849.626 1085.79,838.96 1080,827.5C 1079.17,841.179 1079.33,854.846 1080.5,868.5C 1082.96,869.919 1085.63,870.919 1088.5,871.5C 1089.37,873.747 1089.71,876.08 1089.5,878.5C 1079.83,878.5 1070.17,878.5 1060.5,878.5C 1060.34,876.143 1060.5,873.81 1061,871.5C 1063.74,870.518 1066.57,869.852 1069.5,869.5C 1069.67,851.497 1069.5,833.497 1069,815.5C 1066.33,814.833 1063.67,814.167 1061,813.5C 1060.5,810.854 1060.34,808.187 1060.5,805.5 Z"/></g>
<g><path style="opacity:0.004" fill="#00fffe" d="M 638.5,818.5 C 639.289,818.783 639.956,819.283 640.5,820C 639.841,835.598 639.174,851.098 638.5,866.5C 638.5,850.5 638.5,834.5 638.5,818.5 Z"/></g>
</svg>
